# xmcd CD database file generated by Grip 3.2.0
# 
# Track frame offsets:
#       150
#       5162
#       25205
#       28555
#       59525
#       77042
#       83185
#       96117
#       102690
#       120895
#       133950
#       143710
#       154762
#       167862
# 
# Disc length: 2496 seconds
# 
# Revision: 1
# Processed by: cddbd v1.5.1PL0 Copyright (c) Steve Scherf et al.
# Submitted via: Grip 3.2.0
# 
DISCID=b809be0e
DTITLE=Stomu Yamashita - GO
DYEAR=1976
DGENRE=Jazz
TTITLE0=Solitude
TTITLE1=Nature
TTITLE2=Air Over
TTITLE3=Crossing the Line
TTITLE4=Man of Leo
TTITLE5=Stellar
TTITLE6=Space Theme
TTITLE7=Space Requiem
TTITLE8=Space Song
TTITLE9=Carnival
TTITLE10=Ghost Machine
TTITLE11=Surfspin
TTITLE12=Time is Here
TTITLE13=Winner/Loser
EXTD=YEAR: 1976
EXTT0=
EXTT1=
EXTT2=
EXTT3=
EXTT4=
EXTT5=
EXTT6=
EXTT7=
EXTT8=
EXTT9=
EXTT10=
EXTT11=
EXTT12=
EXTT13=
PLAYORDER=
